# xmcd
#
# Track frame offsets:
#	150
#	17932
#	39870
#	64440
#	81729
#	96485
#	112365
#	127337
#	144912
#	165517
#	179780
#	203105
#	218080
#	236490
#
# Disc length: 3348 seconds
#
# Revision: 1
# Processed by: cddbd v1.5.1PL0 Copyright (c) Steve Scherf et al.
# Submitted via: CDex 1.50Beta5
#
DISCID=dc0d120e
DTITLE=仲宗根かほる - チム・チム・チェリー
DYEAR=2003
DGENRE=
TTITLE0=チム・チム・チェリー
TTITLE1=フォギー・デイ
TTITLE2=初めての恋
TTITLE3=リリィ・マルレーン
TTITLE4=シャレード
TTITLE5=ワンス・アポン・ア・サマータイム
TTITLE6=ドゥードゥリン・ソング
TTITLE7=ひまわり
TTITLE8=ジャスト・スクィーズ・ミー
TTITLE9=私のお気に入り
TTITLE10=イット・マイト・アズ・ウェル・ビー・スプリング
TTITLE11=踊り明かそう
TTITLE12=ティス・オータム
TTITLE13=忘れじの面影
EXTD=
EXTT0=
EXTT1=
EXTT2=
EXTT3=
EXTT4=
EXTT5=
EXTT6=
EXTT7=
EXTT8=
EXTT9=
EXTT10=
EXTT11=
EXTT12=
EXTT13=
PLAYORDER=
